<?xml version="1.0" standalone="no"?>
<!DOCTYPE svg PUBLIC "-//W3C//DTD SVG 20010904//EN"
 "http://www.w3.org/TR/2001/REC-SVG-20010904/DTD/svg10.dtd">
<svg version="1.0" xmlns="http://www.w3.org/2000/svg"
 width="857.000000pt" height="1200.000000pt" viewBox="0 0 857.000000 1200.000000"
 preserveAspectRatio="xMidYMid meet">

<g transform="translate(0.000000,1200.000000) scale(0.100000,-0.100000)"
fill="#000000" stroke="none">
<path d="M4315 11464 c-180 -20 -265 -34 -315 -48 -153 -46 -278 -91 -351
-125 -175 -82 -196 -92 -254 -125 -219 -121 -559 -404 -669 -556 -38 -52 -196
-289 -196 -294 0 -2 -17 -33 -39 -67 -21 -35 -69 -123 -106 -194 -38 -72 -94
-166 -126 -210 -48 -67 -86 -140 -140 -270 -4 -11 -17 -40 -27 -65 -11 -25
-28 -72 -37 -105 -10 -33 -23 -78 -30 -100 -8 -22 -27 -101 -43 -175 -75 -338
-88 -700 -39 -1050 31 -214 58 -350 87 -435 10 -30 31 -104 46 -163 14 -59 39
-134 54 -167 27 -56 28 -61 14 -95 -38 -90 -165 -160 -291 -160 -48 0 -57 -14
-16 -25 34 -8 179 5 163 15 -9 6 -6 10 9 15 12 3 52 25 89 47 112 67 245 224
306 362 15 33 29 56 32 53 18 -17 -102 -217 -180 -299 -46 -49 -96 -159 -118
-261 -6 -29 -12 -158 -13 -287 -2 -152 -7 -247 -14 -270 -7 -20 -17 -155 -24
-323 l-11 -289 -41 -46 c-116 -132 -245 -360 -305 -545 -23 -67 -61 -338 -61
-429 1 -162 1 -198 7 -273 3 -44 16 -129 29 -190 27 -123 55 -262 55 -269 0
-3 -27 -8 -60 -12 -33 -3 -57 -11 -54 -16 6 -9 66 -5 96 7 13 5 19 -2 27 -37
6 -23 16 -57 21 -74 15 -45 12 -70 -10 -114 -11 -22 -20 -46 -20 -54 0 -30
-89 -244 -152 -366 -52 -102 -300 -487 -380 -590 -29 -38 -229 -345 -280 -430
-207 -346 -287 -573 -323 -920 -14 -138 -14 -229 1 -383 6 -72 47 -263 58
-274 14 -14 14 5 1 62 -23 97 -43 234 -50 330 -13 196 36 534 105 724 30 84
172 375 196 402 8 8 14 20 14 26 0 8 117 191 201 313 17 25 53 79 80 120 141
212 281 418 303 446 44 54 159 291 222 456 54 145 60 155 66 125 4 -17 15 -61
24 -97 13 -57 14 -95 5 -275 -9 -191 -13 -223 -46 -350 -20 -77 -46 -160 -57
-185 -11 -25 -35 -89 -53 -143 -19 -53 -49 -125 -68 -160 -165 -302 -205 -368
-317 -516 -120 -160 -147 -199 -176 -256 -15 -27 -41 -72 -59 -100 -61 -96
-175 -293 -193 -336 -46 -106 -135 -399 -148 -488 -18 -115 -20 -264 -5 -343
6 -32 15 -82 20 -110 6 -29 20 -78 31 -108 12 -30 28 -72 35 -92 7 -20 21 -48
30 -62 9 -14 14 -29 11 -35 -3 -5 -3 -11 2 -13 4 -1 24 -29 45 -60 29 -44 44
-58 62 -58 23 0 24 2 13 28 -7 15 -15 32 -19 37 -4 6 -19 55 -33 110 -15 55
-32 115 -37 133 -13 41 -12 278 1 387 16 140 63 312 119 440 37 83 159 300
184 326 12 13 31 38 42 54 10 17 29 41 41 55 12 14 42 48 66 76 24 28 78 83
121 124 42 40 97 103 120 139 74 113 112 175 127 206 8 17 33 62 55 100 23 39
52 95 66 125 30 64 112 361 129 468 14 83 26 98 16 19 -8 -62 -35 -176 -83
-347 -39 -140 -105 -273 -252 -503 -92 -145 -119 -202 -164 -352 -42 -140
-107 -390 -117 -450 -21 -124 -49 -326 -54 -393 -8 -106 -9 -439 -1 -451 3 -6
3 -27 -1 -46 -4 -25 -1 -42 10 -60 19 -28 21 -56 5 -72 -8 -8 -7 -17 2 -34 7
-13 14 -33 16 -44 5 -32 25 -75 34 -75 11 0 11 6 0 50 -5 19 -12 65 -15 102
-2 37 -7 71 -10 76 -4 6 -7 122 -7 287 0 62 36 311 55 385 40 154 109 391 126
435 10 28 42 115 71 195 68 193 179 432 229 495 25 32 69 127 75 163 4 23 11
42 16 42 12 0 14 9 -25 -147 -58 -234 -71 -379 -70 -763 1 -360 11 -492 50
-665 27 -121 51 -185 69 -185 6 0 -92 -105 -217 -232 -164 -167 -224 -234
-211 -237 11 -2 48 29 108 92 217 228 270 282 443 451 150 148 182 175 182
155 0 -13 4 -31 10 -39 15 -25 23 14 16 78 -10 84 -7 512 8 1162 2 109 17 177
30 140 25 -68 126 -384 126 -392 0 -24 87 -297 167 -528 23 -63 48 -142 58
-175 9 -33 30 -96 46 -140 31 -86 69 -264 69 -322 0 -42 14 -132 41 -263 10
-52 21 -106 23 -120 13 -79 19 -100 32 -100 8 0 14 1 14 3 0 1 -9 47 -19 102
-11 55 -22 125 -26 155 -4 30 -9 58 -11 62 -2 3 -15 84 -29 180 -28 193 -27
188 -62 277 -14 36 -31 85 -38 110 -7 25 -22 82 -34 126 -12 44 -39 125 -60
180 -44 115 -60 161 -100 300 -16 55 -40 134 -52 175 -12 41 -46 148 -75 236
-30 89 -54 166 -54 172 0 6 18 41 40 80 22 38 40 76 40 85 0 9 6 20 13 24 23
15 75 128 182 398 100 254 129 326 161 402 8 17 14 34 14 38 0 9 129 340 165
425 25 59 106 306 125 380 20 79 78 303 94 360 9 30 23 93 31 140 9 47 20 100
26 117 18 58 60 343 76 518 4 50 8 145 8 213 0 67 3 122 7 122 15 0 162 -209
238 -340 24 -41 49 -82 56 -90 6 -8 41 -69 76 -136 161 -298 319 -778 363
-1098 4 -30 10 -45 16 -39 11 11 16 448 6 563 l-6 75 15 -80 c12 -64 14 -129
9 -320 -3 -132 -8 -256 -10 -275 -2 -19 -11 -100 -20 -180 -38 -366 -68 -522
-142 -730 l-37 -105 -8 50 c-4 28 -9 73 -11 100 -5 54 -27 200 -52 330 -8 44
-19 118 -25 165 -6 47 -17 135 -26 195 -8 61 -26 193 -39 295 -24 179 -38 266
-72 437 -27 138 -2 309 63 435 8 15 14 34 14 43 0 34 -17 11 -50 -70 -61 -147
-80 -156 -119 -59 -54 137 -65 162 -102 224 -43 75 -91 129 -97 111 -2 -6 9
-26 25 -44 36 -41 104 -172 133 -257 12 -36 27 -73 32 -82 14 -28 55 -178 62
-228 4 -25 13 -74 21 -110 19 -87 62 -366 80 -515 24 -203 64 -483 89 -630 13
-77 32 -207 41 -288 l17 -148 -22 -47 c-71 -151 -183 -268 -320 -334 -47 -22
-93 -44 -102 -49 -10 -5 -47 -9 -84 -9 -48 0 -64 -3 -61 -12 5 -16 102 -14
167 4 121 32 288 168 376 304 48 75 49 76 56 48 20 -80 83 -374 104 -484 32
-173 140 -702 157 -775 21 -85 76 -255 142 -433 62 -170 102 -318 135 -492 12
-63 26 -134 31 -157 5 -23 9 -65 9 -92 0 -44 3 -51 20 -51 13 0 18 5 14 15 -4
9 -1 37 6 63 7 26 15 97 19 157 6 108 6 110 31 113 36 4 153 43 168 55 10 8
16 7 23 -5 58 -105 278 -285 367 -301 42 -8 41 8 -2 23 -38 12 -123 70 -204
137 -50 43 -148 160 -140 168 2 2 20 15 40 28 l36 25 53 -45 c48 -40 340 -193
397 -208 50 -14 16 13 -76 60 -80 42 -113 66 -194 147 -54 53 -98 102 -98 110
0 8 22 30 48 51 121 92 279 298 353 460 12 26 22 47 23 47 0 0 36 -7 79 -15
80 -15 213 -20 254 -9 37 10 14 26 -27 19 -62 -10 -242 47 -265 85 -3 5 2 24
11 42 34 65 54 173 65 348 19 301 -3 460 -112 794 -33 103 -59 198 -56 209 9
41 65 181 127 322 74 169 90 200 148 290 102 157 164 250 168 250 2 0 29 -72
58 -161 76 -222 200 -489 257 -550 10 -11 19 -25 19 -31 0 -23 -81 -254 -123
-350 -88 -200 -305 -555 -411 -670 -31 -33 -56 -64 -56 -67 0 -22 51 21 107
90 78 96 99 124 118 155 11 19 31 52 45 75 14 22 45 74 69 115 24 41 54 88 66
104 13 17 44 75 69 130 26 55 53 111 60 125 7 14 21 54 31 90 10 36 24 72 32
81 7 8 13 28 13 42 0 35 7 34 47 -5 46 -44 55 -26 10 20 -38 39 -44 59 -28 90
10 20 31 101 41 160 11 66 17 60 25 -25 8 -91 70 -291 117 -373 37 -66 107
-160 119 -160 5 0 -12 30 -37 68 -129 187 -202 455 -175 642 15 98 32 376 26
420 -2 19 -7 221 -9 448 -3 227 -10 441 -15 475 -23 150 -57 670 -44 686 2 2
6 2 9 -1 5 -6 7 -37 19 -283 9 -189 59 -608 81 -678 5 -15 8 -16 21 -5 51 42
303 470 303 515 0 3 18 25 40 49 22 24 40 49 40 55 0 25 44 99 57 95 7 -3 63
-15 125 -26 62 -12 148 -28 191 -37 42 -9 79 -14 82 -11 3 3 -6 25 -20 49 -47
84 -143 410 -133 455 7 26 11 12 38 -111 13 -55 28 -113 35 -130 7 -16 20 -57
30 -90 10 -33 33 -88 51 -122 33 -60 36 -62 101 -84 93 -31 159 -65 219 -114
121 -98 199 -231 162 -275 -46 -54 -161 -112 -254 -129 -99 -17 -124 -18 -218
-9 -162 15 -314 77 -347 140 -6 13 -20 32 -29 43 -10 11 -37 58 -60 105 -23
47 -46 93 -51 102 -5 10 -9 22 -9 26 0 8 148 71 224 96 14 5 16 10 8 18 -14
14 -261 -80 -262 -100 0 -19 -126 -256 -183 -347 -28 -44 -73 -108 -99 -141
-26 -34 -48 -67 -48 -74 0 -7 9 -27 20 -45 11 -17 35 -91 54 -163 20 -72 58
-205 87 -294 57 -184 83 -277 109 -393 22 -99 29 -128 73 -290 54 -199 61
-251 54 -404 -5 -123 -17 -213 -47 -354 -16 -80 -74 -253 -78 -234 -2 10 10
58 27 107 52 152 84 352 84 525 0 144 -2 156 -42 309 -23 88 -45 164 -48 169
-9 14 -43 160 -43 185 0 13 -5 32 -10 42 -6 11 -15 43 -20 72 -6 29 -35 131
-66 227 -31 95 -69 225 -84 288 -42 171 -47 163 -24 -37 2 -19 11 -71 19 -115
24 -135 44 -360 51 -575 13 -398 17 -451 59 -795 17 -140 27 -204 49 -298 9
-38 16 -79 16 -91 0 -13 7 -29 14 -36 13 -10 9 -29 -29 -133 -51 -142 -109
-274 -148 -334 -15 -24 -27 -47 -27 -52 0 -25 -75 -125 -151 -202 -63 -63
-103 -95 -148 -115 -60 -28 -77 -44 -45 -44 39 0 131 64 294 205 50 42 220
216 220 224 0 3 10 17 23 31 29 32 61 83 87 138 11 24 48 91 82 149 35 57 71
119 81 135 28 48 57 130 57 163 0 50 -38 254 -65 350 -35 127 -46 177 -41 183
6 5 6 4 34 -93 35 -121 61 -237 76 -335 27 -167 48 -450 42 -535 -7 -82 -37
-238 -61 -315 -18 -56 -80 -296 -96 -370 -27 -122 -98 -239 -215 -351 -134
-128 -252 -197 -409 -240 -38 -11 -95 -27 -125 -35 -112 -32 -444 -34 -500 -4
-10 6 -27 10 -36 10 -34 0 7 -27 68 -44 115 -33 351 -18 565 35 46 11 102 19
125 17 36 -2 44 -7 46 -26 4 -26 -28 -123 -63 -193 -29 -56 -29 -59 -12 -59 8
0 27 26 42 58 16 31 59 107 96 167 37 61 80 134 96 163 16 29 50 70 76 91 51
42 132 129 159 170 44 65 -2 -56 -71 -188 -52 -100 -118 -167 -178 -184 -47
-12 -48 -27 -2 -27 76 0 147 76 234 250 34 69 69 139 77 155 79 157 158 344
158 372 0 12 9 46 21 75 19 47 96 263 134 373 7 22 21 69 30 105 9 36 23 75
31 87 17 26 18 47 4 71 -9 15 -72 188 -105 287 -28 87 -67 211 -70 225 -2 8
-6 27 -10 43 -5 17 -3 27 4 27 6 0 11 -8 11 -19 0 -36 169 -532 199 -585 63
-109 214 -304 312 -402 l101 -102 0 -263 c0 -145 4 -304 8 -354 5 -49 7 -91 5
-93 -9 -9 -65 32 -116 85 -53 54 -159 201 -159 220 0 4 -6 19 -13 33 -45 86
-140 464 -153 605 -4 44 -8 87 -9 95 -1 8 -2 28 -3 43 -3 40 -19 25 -27 -26
-4 -23 -17 -69 -30 -102 -13 -33 -39 -107 -59 -165 -20 -58 -40 -114 -45 -125
-5 -11 -19 -46 -30 -77 l-20 -57 44 -59 c51 -68 160 -187 259 -284 101 -99
233 -183 326 -208 l41 -11 -4 -235 c-3 -128 -1 -234 4 -234 15 0 22 71 24 235
2 210 3 227 14 220 13 -7 143 13 155 25 5 5 -28 8 -75 7 l-84 -2 -9 39 c-9 34
-6 46 21 100 17 33 41 95 53 136 13 41 35 109 50 150 16 41 31 84 34 94 6 18
7 18 29 -3 13 -11 26 -21 30 -21 4 0 28 -13 54 -29 57 -34 114 -51 94 -28 -6
8 -35 27 -64 42 -29 14 -69 41 -90 59 l-37 33 15 37 c27 64 77 353 106 611 14
130 17 148 24 182 4 18 10 31 14 29 3 -2 7 39 9 92 1 54 10 147 18 207 22 151
28 621 9 730 -7 44 -18 114 -24 155 -19 129 -22 144 -36 195 -18 64 -30 235
-14 190 51 -140 64 -175 80 -212 17 -37 37 -102 105 -338 13 -45 73 -337 88
-425 5 -33 28 -328 28 -360 0 -8 6 -69 14 -135 28 -251 14 -509 -45 -805 -12
-58 -30 -134 -40 -170 -11 -36 -22 -82 -26 -103 -3 -20 -9 -37 -14 -37 -4 0
-17 51 -29 113 -12 61 -35 180 -51 262 -38 197 -57 357 -61 525 -1 76 -4 89
-11 65 -16 -49 16 -413 51 -590 70 -351 79 -386 96 -400 6 -5 14 -21 17 -35
14 -66 34 -124 43 -127 9 -3 26 46 81 227 10 30 22 62 28 70 6 8 17 35 24 60
7 25 18 68 26 95 62 223 73 277 82 410 12 179 9 716 -5 815 -11 74 -24 189
-37 325 -13 136 -18 169 -37 250 -29 125 -83 285 -118 347 -6 10 -10 23 -10
28 0 17 -109 265 -192 440 -41 85 -80 171 -88 190 -7 19 -25 53 -39 75 -14 22
-32 49 -39 60 -16 26 -75 151 -126 265 -8 19 -29 60 -47 90 -17 30 -52 93 -76
140 -25 47 -49 90 -52 95 -4 6 -22 48 -40 95 -28 72 -51 129 -101 245 -51 119
-140 457 -140 531 -1 27 -7 90 -15 139 -8 50 -18 123 -21 163 -7 74 -19 93
-30 45 -10 -47 -22 -86 -42 -143 -11 -30 -30 -91 -42 -135 -12 -44 -33 -111
-47 -150 -14 -38 -37 -106 -52 -150 -16 -44 -38 -100 -50 -125 -12 -25 -42
-92 -66 -150 -69 -166 -104 -240 -116 -240 -6 0 -9 3 -7 8 18 36 35 75 83 192
31 74 69 162 85 196 16 34 39 92 51 130 12 38 25 74 29 79 10 13 57 160 66
205 3 19 10 41 14 50 4 8 27 76 50 150 24 74 49 142 57 151 25 29 103 370 103
450 0 21 11 96 24 166 13 71 34 191 47 268 12 77 26 167 32 200 11 68 14 442
4 555 -3 41 -15 167 -27 280 -11 113 -20 209 -20 213 0 5 -4 5 -10 2 -9 -6 -7
-96 5 -205 32 -298 34 -317 36 -490 4 -216 -7 -341 -46 -555 -19 -106 -41
-246 -56 -365 -10 -78 -21 -142 -68 -377 -16 -79 -31 -116 -31 -77 0 10 -8 91
-17 179 -18 181 -23 393 -12 570 8 122 9 133 27 240 6 33 13 92 16 130 4 39
13 117 21 175 8 58 24 177 36 265 11 88 29 212 39 275 11 63 21 141 24 173 3
32 8 62 11 67 5 8 12 143 19 375 6 198 -24 548 -60 705 -15 64 -23 110 -45
260 -11 78 -53 251 -68 279 -5 9 -34 93 -66 186 -62 183 -141 353 -250 535
-52 88 -95 142 -179 230 -61 64 -123 132 -137 151 -15 19 -66 61 -114 93 -48
32 -103 74 -121 92 -18 19 -39 34 -47 34 -9 0 -17 3 -19 8 -4 10 -155 112
-166 112 -5 0 -28 14 -50 30 -23 17 -44 30 -46 30 -3 0 -29 14 -58 31 -59 35
-202 83 -293 98 -33 6 -87 15 -120 21 -33 6 -145 13 -250 15 -158 2 -200 6
-250 23 -65 22 -332 53 -436 51 -35 -1 -118 -7 -184 -15z m385 -239 c94 -18
177 -40 200 -54 26 -17 0 -25 -28 -9 -15 8 -58 21 -97 28 -38 7 -99 18 -135
25 -63 12 -190 12 -240 0 -14 -3 -45 -8 -70 -11 -88 -9 -272 -57 -347 -90 -17
-8 -39 -14 -50 -14 -28 0 -142 -50 -200 -88 -65 -42 -94 -37 -32 5 68 47 94
58 259 112 192 62 220 69 350 91 134 23 282 24 390 5z m858 -43 c138 -41 232
-83 320 -146 24 -17 39 -32 34 -34 -6 -2 -33 13 -61 32 -28 20 -53 36 -56 36
-2 0 -39 16 -80 36 -80 37 -196 74 -306 99 -97 21 -307 -2 -348 -39 -12 -11
-21 -13 -25 -7 -21 34 144 72 289 67 70 -2 122 -12 233 -44z m-2088 -22 c0 -5
-4 -10 -10 -10 -5 0 -10 5 -10 10 0 6 5 10 10 10 6 0 10 -4 10 -10z m-55 -30
c-10 -11 -22 -20 -28 -20 -5 0 -26 -13 -47 -30 -21 -16 -41 -30 -44 -30 -9 0
-100 -68 -158 -117 -25 -21 -77 -65 -117 -98 -39 -33 -71 -65 -71 -72 0 -8 -7
-16 -15 -19 -8 -4 -15 -10 -15 -16 0 -5 -13 -23 -30 -41 -30 -32 -33 -50 -5
-27 9 7 19 9 23 5 4 -4 1 -10 -5 -12 -18 -6 -16 -51 2 -55 11 -2 8 -13 -15
-50 -17 -27 -30 -52 -30 -58 0 -12 27 -14 32 -2 4 10 76 52 89 52 11 0 -52
-85 -133 -181 -27 -31 -48 -62 -48 -68 0 -6 -4 -11 -8 -11 -5 0 -27 -35 -51
-77 -23 -43 -49 -89 -56 -103 -22 -38 -43 -91 -52 -129 -5 -19 -14 -36 -20
-38 -9 -3 1 38 38 155 12 37 7 48 -13 36 -7 -5 -21 -7 -30 -6 -12 2 -19 -6
-24 -25 -9 -41 -38 -102 -48 -103 -4 0 -5 8 -1 18 16 37 29 92 23 98 -13 13
-46 -33 -69 -95 -12 -35 -25 -59 -27 -53 -3 10 13 69 36 130 2 6 -1 12 -7 12
-12 0 -145 -266 -156 -313 -4 -16 -14 -31 -21 -34 -8 -3 -12 -9 -9 -13 2 -4
-4 -26 -15 -48 -11 -23 -20 -48 -20 -57 0 -8 -4 -15 -9 -15 -14 0 24 117 82
252 60 140 120 254 191 368 25 41 46 80 46 87 0 7 5 13 10 13 6 0 10 6 10 14
0 8 19 40 43 72 23 33 60 86 81 119 78 119 216 255 459 452 29 23 55 42 60 43
4 0 47 25 94 55 48 30 89 55 92 55 2 0 -4 -9 -14 -20z m1916 -134 c63 -14 89
-24 181 -74 58 -30 228 -146 281 -190 56 -45 184 -187 229 -250 48 -69 137
-251 126 -258 -5 -3 -10 -4 -11 -3 -2 2 -22 45 -47 94 -43 88 -105 187 -122
193 -4 2 -8 9 -8 15 0 17 -178 196 -224 227 -20 14 -50 35 -66 48 -15 12 -32
22 -37 22 -6 0 -18 9 -28 20 -10 11 -24 20 -31 20 -7 0 -14 4 -16 8 -5 14
-138 83 -192 100 -33 10 -87 16 -153 15 -96 0 -104 -2 -138 -27 -20 -16 -39
-25 -43 -21 -10 10 47 54 83 64 46 14 143 12 216 -3z m-518 -27 c9 -6 17 -14
17 -19 0 -13 -13 -13 -25 -1 -21 20 -205 19 -342 -3 -73 -11 -326 -100 -348
-122 -7 -8 -17 -14 -21 -14 -14 0 -171 -94 -218 -131 -27 -22 -53 -39 -57 -39
-46 0 105 107 296 210 72 39 268 102 390 126 75 14 275 9 308 -7z m1452 1 c3
-6 -1 -7 -9 -4 -18 7 -21 14 -7 14 6 0 13 -4 16 -10z m206 -179 c69 -69 151
-157 183 -194 101 -117 249 -384 318 -572 101 -275 147 -434 168 -574 12 -79
30 -178 40 -220 23 -95 36 -196 55 -426 18 -218 19 -332 5 -490 -5 -66 -12
-147 -15 -180 -8 -108 -18 -188 -50 -370 -15 -87 -34 -232 -76 -575 -12 -91
-25 -190 -29 -220 -17 -103 -24 -512 -11 -617 7 -54 14 -118 17 -142 3 -26 2
-41 -4 -37 -5 3 -13 30 -16 59 -4 30 -10 73 -13 98 -3 24 -5 152 -5 284 1 215
4 284 17 420 17 167 36 371 45 485 6 74 15 155 20 180 5 25 14 83 20 130 6 47
18 132 27 190 9 58 17 116 19 130 13 85 25 279 26 425 1 205 -10 373 -38 560
-13 90 -49 260 -74 356 -6 20 -10 44 -10 53 0 9 -8 35 -19 59 -10 23 -29 78
-41 122 -13 44 -27 84 -32 90 -4 5 -8 16 -8 25 0 9 -9 43 -21 76 -11 32 -22
66 -23 74 -4 18 -41 107 -57 134 -6 10 -48 94 -94 185 -46 91 -93 177 -104
191 -11 14 -25 31 -31 38 -6 6 -15 12 -19 12 -12 0 -55 -72 -53 -87 2 -6 -5
-9 -15 -7 -11 3 -29 -7 -47 -25 -27 -28 -28 -33 -16 -56 17 -32 7 -43 -17 -16
-9 12 -22 21 -28 21 -13 0 -55 -46 -55 -60 0 -6 -9 -10 -20 -10 -13 0 -20 -7
-20 -19 0 -11 -5 -23 -11 -26 -6 -4 -9 -26 -7 -49 4 -48 -14 -61 -23 -17 -7
35 -64 126 -98 159 -28 26 -21 44 7 19 10 -10 25 -17 33 -17 8 0 24 -15 37
-33 12 -17 22 -26 22 -19 0 18 25 42 45 42 16 0 65 28 76 43 4 5 4 18 1 29 -4
17 -2 19 18 13 18 -6 31 0 62 31 79 78 98 99 98 107 0 5 -14 26 -30 46 -17 20
-40 48 -53 63 -12 16 -41 48 -63 72 -23 24 -43 48 -45 52 -4 9 -41 41 -108 94
-17 14 -31 28 -31 33 0 20 54 -26 171 -142z m-1681 59 c0 -5 -19 -22 -42 -36
-66 -41 -177 -160 -205 -219 -17 -35 -33 -46 -33 -22 0 18 98 146 155 200 27
27 66 57 85 68 42 22 40 21 40 9z m-1740 -425 c0 -3 -18 -31 -40 -62 -38 -55
-52 -103 -30 -103 5 0 20 18 32 40 13 22 26 40 31 40 12 0 9 -7 -40 -82 -26
-40 -58 -94 -70 -120 -12 -27 -27 -48 -33 -48 -6 0 -5 11 5 30 20 38 19 43 -5
35 -25 -8 -25 -1 0 33 20 27 54 102 46 102 -10 0 -88 -132 -118 -200 -18 -41
-34 -67 -36 -58 -5 28 125 272 173 324 5 6 22 25 38 43 24 27 47 40 47 26z
m480 -11 c0 -3 -14 -26 -31 -50 -49 -72 -153 -289 -199 -414 -23 -63 -50 -135
-60 -160 -27 -63 -67 -237 -82 -350 -7 -56 -12 -224 -13 -410 0 -267 -2 -317
-15 -327 -8 -7 -46 -33 -83 -59 -38 -25 -93 -71 -124 -100 -31 -30 -57 -53
-59 -51 -3 2 -8 45 -13 96 -9 102 1 303 19 371 67 253 123 425 182 555 44 99
122 242 145 269 25 28 46 73 130 286 29 72 123 254 161 313 22 33 42 48 42 31z
m1110 -141 c-31 -158 -31 -162 -20 -182 6 -12 10 -49 9 -83 -1 -102 17 -297
36 -378 27 -112 141 -420 156 -420 8 0 2 34 -11 65 -82 191 -128 345 -145 491
-9 70 1 64 35 -21 52 -134 201 -414 277 -522 13 -17 23 -33 23 -35 0 -2 -80
-3 -177 -3 -202 0 -285 -9 -310 -33 -16 -16 -15 -17 12 -20 15 -2 47 1 70 7
23 6 127 13 232 17 l190 6 58 -68 c120 -144 326 -344 352 -344 9 0 41 -15 72
-34 101 -61 233 -107 246 -86 3 6 8 47 11 92 3 46 7 103 8 128 3 45 -14 204
-34 314 -10 54 -8 77 5 64 12 -11 44 -226 46 -303 3 -108 -8 -239 -31 -360
-10 -55 -22 -145 -25 -200 -6 -94 -24 -260 -45 -405 -5 -36 -18 -96 -29 -135
-11 -38 -26 -92 -34 -120 -23 -82 -111 -268 -154 -326 -58 -79 -132 -129 -188
-129 -14 0 -25 -4 -25 -10 0 -21 76 -9 126 20 58 33 117 103 230 276 70 105
88 143 140 289 10 28 33 91 51 142 18 51 33 98 33 104 0 13 9 43 41 139 16 47
27 99 65 289 3 14 7 28 10 32 26 42 34 606 11 709 -16 71 -6 107 13 44 38
-130 31 -654 -11 -782 -6 -18 -8 -36 -5 -39 7 -8 142 59 249 123 72 43 144 68
235 84 23 4 45 9 48 13 18 18 -74 424 -125 556 -12 28 -21 59 -21 69 1 15 2
15 15 -2 36 -47 110 -325 148 -554 l12 -73 53 -18 c66 -23 81 -37 133 -123 62
-102 76 -153 83 -313 8 -149 -1 -224 -32 -285 -10 -19 -33 -64 -52 -100 -18
-36 -57 -102 -87 -147 -53 -79 -55 -86 -60 -160 -2 -43 -16 -125 -29 -183 -14
-57 -39 -175 -54 -262 -16 -87 -34 -176 -40 -199 -6 -22 -18 -80 -26 -127 -8
-48 -20 -116 -27 -152 -6 -36 -11 -116 -12 -179 0 -76 -4 -115 -11 -118 -9 -3
-11 39 -9 154 3 156 13 229 64 463 53 247 71 337 71 358 0 12 4 30 9 40 11 20
44 242 38 249 -3 2 -16 -10 -29 -27 -22 -30 -195 -177 -235 -199 -79 -44 -202
-79 -235 -66 -11 4 -21 -10 -37 -57 -24 -65 -173 -362 -195 -388 -8 -8 -15
-20 -17 -27 -8 -23 -115 -149 -189 -222 -70 -68 -198 -172 -308 -249 -26 -19
-58 -44 -72 -56 -39 -37 -123 -92 -186 -124 -33 -17 -111 -61 -175 -99 -63
-37 -162 -93 -220 -122 -104 -54 -127 -59 -167 -33 -17 11 1 31 276 310 116
119 212 221 212 227 0 23 -145 177 -264 280 -64 54 -68 60 -46 65 13 3 28 13
34 22 23 37 -79 108 -181 128 -83 15 -396 -17 -455 -47 -29 -14 -44 -50 -35
-82 3 -14 -15 -38 -65 -87 -38 -38 -96 -103 -128 -145 -33 -42 -75 -94 -95
-114 -26 -28 -34 -44 -29 -58 4 -12 -26 8 -77 53 -119 104 -135 121 -243 253
-161 198 -202 300 -241 602 -12 95 -18 108 -75 147 -124 86 -271 252 -346 393
-17 32 -36 61 -42 63 -17 5 -27 -121 -25 -318 1 -145 6 -202 21 -263 11 -43
16 -75 12 -70 -14 15 -41 141 -49 230 -11 118 -4 303 14 385 l15 68 -36 77
c-20 43 -42 98 -50 123 -25 82 -54 250 -52 308 1 34 3 43 5 22 8 -84 26 -191
45 -265 19 -72 27 -94 61 -160 6 -11 18 -38 26 -60 47 -117 207 -347 306 -439
61 -56 262 -183 273 -172 3 4 -17 30 -44 59 -28 28 -62 70 -76 93 -25 39 -98
179 -98 188 0 2 9 2 20 -1 11 -3 20 -12 20 -21 0 -12 3 -13 12 -4 16 16 28 15
28 -3 0 -20 16 -19 24 1 8 22 29 12 37 -17 l6 -24 11 28 c15 35 47 36 56 2 7
-29 26 -24 26 6 0 22 6 25 68 33 39 6 42 4 43 -16 0 -22 1 -22 12 -4 16 26 58
66 68 66 5 0 9 -7 9 -15 0 -8 5 -15 10 -15 6 0 10 9 10 20 0 13 14 27 40 40
37 19 42 19 56 5 21 -21 25 -19 18 10 -4 18 -2 25 8 25 8 0 37 11 64 25 27 14
62 25 78 25 21 0 26 3 18 13 -15 19 -21 166 -7 175 15 9 47 91 40 103 -4 5 3
46 14 92 37 151 50 234 57 351 4 64 11 116 15 116 5 0 9 -2 9 -4 0 -68 -27
-290 -46 -376 -19 -82 -26 -141 -25 -206 2 -122 -22 -264 -54 -321 -14 -26
-23 -49 -19 -52 14 -14 147 164 173 232 5 12 25 57 45 101 20 43 46 106 58
140 22 62 22 64 5 187 -9 68 -26 167 -37 219 -22 109 -38 320 -23 320 5 0 9
-19 10 -42 0 -75 24 -260 43 -345 47 -202 53 -578 11 -756 -22 -95 -71 -183
-116 -207 -28 -15 -33 -30 -10 -30 21 0 92 77 115 125 10 22 28 82 40 134 21
93 25 157 34 516 4 118 13 220 32 335 l27 165 -18 178 c-16 169 -14 290 5 302
4 3 5 -32 3 -78 -7 -106 11 -292 38 -393 12 -44 27 -108 35 -143 8 -36 18 -69
23 -75 4 -6 13 -24 19 -41 120 -341 172 -447 254 -527 58 -55 93 -77 106 -63
4 3 0 10 -8 15 -116 70 -174 171 -231 398 -21 86 -45 168 -51 181 -10 18 -13
87 -12 255 2 195 5 247 24 336 12 58 23 117 24 131 2 14 7 32 11 40 5 7 10 20
11 29 8 48 27 121 43 170 11 30 25 80 31 110 7 30 23 75 36 100 63 125 121
255 115 260 -19 13 1 162 35 269 2 8 7 11 10 8 3 -3 1 -32 -6 -64z m-1550 13
c0 -2 -16 -30 -35 -62 -55 -94 -102 -193 -129 -274 -14 -41 -34 -100 -45 -131
-62 -171 -86 -398 -86 -794 0 -285 2 -319 24 -425 33 -165 31 -162 100 -93 31
32 98 85 147 118 l90 61 19 -101 c19 -102 52 -211 80 -264 20 -39 20 -38 -18
-45 -19 -3 -42 -13 -53 -21 -18 -13 -18 -14 -1 -15 10 0 34 7 54 15 33 14 38
14 46 0 7 -14 11 -13 32 4 17 13 39 18 72 17 44 -1 49 -4 87 -52 23 -28 60
-78 84 -111 23 -32 57 -76 76 -96 23 -25 32 -44 29 -57 -3 -11 -1 -20 5 -20
16 0 22 15 24 54 2 51 28 27 28 -25 0 -36 -4 -42 -47 -69 -26 -17 -51 -30 -55
-30 -5 0 -69 -28 -144 -62 l-134 -61 -30 28 c-35 34 -40 80 -13 126 20 34 29
36 37 11 14 -42 83 -83 93 -54 3 7 -4 12 -15 12 -22 0 -62 48 -62 74 0 8 16
27 36 43 35 26 37 26 50 8 8 -10 14 -25 14 -32 0 -18 59 -53 90 -53 73 0 97
86 41 145 -16 16 -50 62 -77 100 -26 39 -52 73 -58 77 -6 4 -35 8 -63 8 -59 0
-65 -9 -33 -50 11 -14 20 -29 20 -34 0 -15 -49 35 -56 56 -4 14 -11 17 -32 12
-29 -7 -84 -33 -92 -43 -3 -3 -23 -18 -45 -32 -48 -32 -111 -94 -130 -130 -11
-21 -58 -49 -81 -49 -4 0 -40 123 -59 200 -8 36 -24 136 -34 222 -11 86 -22
161 -25 166 -3 5 -15 66 -26 135 -18 111 -20 156 -15 380 2 140 7 271 9 293 2
21 7 71 11 109 22 250 117 533 261 782 16 28 34 43 34 29z m121 -95 c-28 -32
-51 -64 -51 -70 0 -6 -4 -19 -9 -29 -16 -34 -42 -124 -37 -129 3 -4 17 20 31
52 14 31 29 55 32 51 3 -3 1 -11 -4 -18 -16 -20 -25 -68 -13 -68 5 0 10 6 10
14 0 7 16 34 35 59 19 25 35 51 35 56 0 6 5 11 10 11 6 0 10 -2 10 -4 0 -11
-124 -243 -136 -256 -13 -13 -15 -12 -21 8 -4 16 -10 21 -24 17 -18 -6 -18 -5
1 37 10 23 17 45 14 47 -6 6 -33 -31 -34 -46 0 -13 -72 -156 -89 -177 -4 -6
-11 -22 -16 -36 -36 -123 -34 -117 -34 -83 -1 17 17 85 40 150 22 65 43 126
46 136 9 27 -12 20 -26 -9 -6 -15 -14 -24 -17 -21 -3 3 1 18 9 34 9 15 35 66
57 113 23 47 47 91 52 98 23 27 18 1 -12 -63 -16 -38 -28 -70 -26 -72 2 -3 23
27 45 66 23 39 65 96 94 127 29 31 56 64 61 72 7 12 11 13 14 4 2 -7 -19 -39
-47 -71z m2274 69 c3 -5 -1 -10 -10 -10 -9 0 -13 5 -10 10 3 6 8 10 10 10 2 0
7 -4 10 -10z m-15 -30 c0 -5 -5 -10 -11 -10 -5 0 -7 5 -4 10 3 6 8 10 11 10 2
0 4 -4 4 -10z m-2310 -9 c0 -5 -7 -14 -15 -21 -8 -7 -15 -18 -15 -26 0 -7 -5
-16 -11 -19 -21 -14 -20 4 3 39 22 34 38 46 38 27z m2887 -49 c28 -43 53 -112
39 -112 -3 0 -12 14 -21 30 -16 32 -43 43 -30 13 4 -10 10 -28 12 -40 4 -18 1
-21 -15 -16 -11 2 -23 0 -26 -6 -13 -21 -23 -11 -37 36 -7 26 -21 55 -31 65
-25 25 -23 42 3 27 20 -10 21 -9 17 15 -6 28 9 36 18 11 9 -22 24 -18 24 5 0
31 12 24 47 -28z m-547 19 c0 -6 -4 -13 -10 -16 -5 -3 -10 1 -10 9 0 9 5 16
10 16 6 0 10 -4 10 -9z m438 -153 c12 -35 22 -71 22 -81 0 -30 -19 -9 -30 33
-6 24 -17 40 -25 40 -18 0 -19 -20 -3 -55 8 -19 9 -28 0 -37 -8 -8 -14 -4 -22
17 -6 15 -25 57 -42 91 -17 35 -29 66 -26 69 3 3 21 -9 39 -27 27 -27 34 -30
37 -16 2 9 -4 28 -12 41 -9 13 -13 27 -9 31 13 12 47 -39 71 -106z m-358 52
c0 -5 -7 -10 -16 -10 -8 0 -12 5 -9 10 3 6 10 10 16 10 5 0 9 -4 9 -10z
m-2139 -36 c-25 -42 -26 -51 -6 -34 21 17 20 -8 -1 -38 -22 -32 -7 -43 16 -12
13 17 20 20 20 10 1 -8 6 -2 13 14 7 16 20 30 30 32 18 2 23 -16 8 -31 -18
-21 -91 -259 -97 -320 -4 -36 -11 -68 -17 -72 -6 -3 -7 14 -2 47 6 42 5 52 -6
48 -8 -3 -18 -21 -23 -41 -5 -20 -15 -37 -23 -37 -16 0 -17 22 -1 38 17 17 1
27 -18 11 -16 -13 -17 -11 -10 14 3 15 2 27 -3 27 -5 0 -12 -22 -16 -50 -4
-27 -11 -50 -17 -50 -5 0 -7 8 -4 18 2 9 7 48 11 87 7 66 35 151 87 260 42 88
58 115 69 115 6 0 2 -16 -10 -36z m2210 -6 c24 -28 67 -118 71 -150 2 -12 -1
-25 -7 -28 -5 -3 -11 7 -13 22 -2 14 -10 32 -19 40 -15 11 -16 10 -10 -10 4
-17 2 -22 -8 -18 -7 2 -15 -4 -18 -15 -3 -11 -14 -19 -27 -19 -20 0 -22 -4
-17 -36 8 -49 -13 -40 -28 13 -7 23 -24 63 -39 89 -14 25 -26 53 -26 60 0 8
-4 14 -10 14 -5 0 -10 7 -10 15 0 22 8 19 37 -15 29 -35 43 -38 43 -10 0 22
10 26 27 9 8 -8 17 -8 33 1 20 11 20 13 6 29 -16 18 -21 31 -10 31 3 0 15 -10
25 -22z m-2022 -93 c-32 -71 -33 -75 -21 -75 5 0 17 18 27 40 10 22 20 38 22
36 3 -2 -5 -22 -16 -45 -12 -22 -21 -45 -21 -51 0 -21 23 -4 42 30 15 28 18
31 18 13 0 -12 -4 -24 -9 -27 -5 -3 -17 -35 -26 -71 -15 -52 -21 -63 -31 -54
-11 9 -14 7 -14 -7 0 -11 -8 -28 -16 -39 -16 -19 -16 -19 -12 8 4 18 1 27 -8
27 -8 0 -14 -7 -14 -15 0 -8 -4 -15 -10 -15 -20 0 19 137 70 243 42 86 58 88
19 2z m1720 -26 c23 -29 41 -60 41 -70 0 -11 4 -27 9 -37 15 -30 33 -93 28
-99 -9 -9 -27 7 -27 24 0 19 -68 85 -81 78 -4 -3 -1 -24 7 -47 17 -48 17 -58
4 -58 -5 0 -10 4 -10 9 0 16 -60 134 -86 171 -18 24 -21 36 -13 39 7 2 15 -1
17 -7 2 -7 10 -12 19 -12 22 0 44 26 37 44 -12 32 16 14 55 -35z m-1514 -11
c-3 -24 -8 -56 -11 -73 -5 -29 -4 -29 11 -11 8 11 15 26 15 34 0 7 6 12 13 9
6 -2 12 -14 11 -26 -1 -41 24 -21 31 25 12 80 16 40 6 -52 -20 -167 -22 -178
-32 -163 -5 8 -9 25 -9 37 0 15 -7 26 -19 29 -12 3 -17 11 -14 19 3 8 0 14 -6
14 -6 0 -13 -12 -17 -27 -17 -76 -21 -87 -31 -90 -8 -3 -11 15 -9 57 3 56 2
61 -15 57 -16 -4 -19 1 -19 32 0 28 7 43 29 62 17 14 34 44 41 67 14 55 31 54
25 0z m1173 -190 c41 -86 40 -97 -3 -53 -37 36 -72 48 -61 20 7 -18 -5 -20
-22 -3 -9 9 -12 7 -12 -9 0 -12 6 -24 13 -27 10 -5 10 -7 0 -12 -19 -8 -16
-32 7 -51 25 -22 26 -33 0 -26 -22 6 -80 89 -111 160 -26 59 -51 154 -44 162
3 3 17 -8 30 -24 l23 -30 13 28 c15 33 24 34 34 5 5 -17 8 -19 11 -8 3 8 8 22
11 30 7 16 9 25 12 38 2 6 13 -17 99 -200z m-498 177 c0 -8 -4 -15 -10 -15 -5
0 -7 7 -4 15 4 8 8 15 10 15 2 0 4 -7 4 -15z m624 -39 c4 -22 18 -60 32 -83
28 -48 30 -57 9 -49 -19 7 -19 -4 1 -32 13 -20 13 -22 0 -22 -8 0 -21 10 -27
23 -7 12 -23 33 -36 47 -26 28 -74 125 -66 133 3 3 11 3 19 0 8 -3 14 1 14 10
0 9 9 15 24 15 20 0 25 -7 30 -42z m-1050 2 c-4 -18 -7 -57 -6 -86 0 -39 -5
-59 -18 -72 -11 -11 -16 -27 -13 -43 3 -13 0 -28 -6 -31 -6 -4 -11 -21 -11
-39 0 -22 -3 -28 -11 -20 -8 8 -8 25 -1 57 9 45 3 64 -18 51 -5 -3 -10 -13
-10 -21 0 -8 -4 -14 -9 -14 -4 0 -5 19 0 43 25 134 31 157 41 163 7 5 9 -2 6
-18 -4 -21 -1 -24 14 -20 10 2 18 10 18 18 0 18 18 64 26 64 3 0 2 -15 -2 -32z
m-1023 -21 c-10 -9 -11 -8 -5 6 3 10 9 15 12 12 3 -3 0 -11 -7 -18z m1264 -17
c-16 -31 -16 -32 4 -25 12 4 21 2 21 -4 0 -17 17 -13 25 6 3 10 1 19 -4 21
-21 7 -11 22 14 22 14 0 25 -4 25 -8 0 -4 -14 -50 -31 -102 -16 -52 -35 -129
-41 -172 -6 -43 -14 -76 -16 -73 -8 8 -3 87 8 124 9 32 -5 56 -16 27 -3 -9
-13 -16 -21 -16 -10 0 -14 -7 -10 -20 3 -11 2 -22 -3 -25 -12 -7 -21 41 -14
73 l7 27 -23 -20 c-16 -14 -22 -16 -18 -5 3 8 14 48 24 89 15 58 24 75 42 82
12 5 25 16 28 24 4 9 8 14 11 11 2 -2 -3 -18 -12 -36z m-2056 -37 c-12 -27
-27 -68 -34 -93 -7 -25 -35 -124 -63 -220 -48 -167 -63 -235 -97 -450 -45
-274 -47 -306 -49 -590 l-1 -285 27 -76 c36 -103 61 -149 102 -188 38 -36 57
-28 26 12 -11 14 -34 58 -51 99 -26 63 -31 89 -36 190 -3 67 -1 150 5 190 6
40 14 95 17 122 3 27 8 53 11 58 3 5 8 30 11 56 2 26 18 89 35 140 16 51 33
118 38 150 13 91 28 146 61 229 46 116 66 150 186 312 2 2 6 2 9 -1 3 -3 -27
-54 -66 -112 -42 -62 -89 -148 -113 -208 l-42 -103 3 -330 c1 -182 -2 -367 -8
-410 -5 -44 -11 -213 -13 -375 -3 -249 -7 -320 -27 -457 -14 -90 -28 -163 -31
-163 -10 0 -45 94 -70 185 -12 44 -30 109 -41 144 -26 86 -64 272 -82 406 -9
61 -20 139 -26 175 -34 221 -7 690 55 950 9 36 20 84 25 108 14 62 82 252 133
368 40 92 110 214 122 214 2 0 -5 -21 -16 -47z m1201 -360 c-8 -47 -10 -108
-7 -145 21 -202 28 -247 42 -288 25 -69 81 -210 108 -271 92 -207 129 -346
132 -501 1 -60 1 -108 0 -108 -7 0 -65 56 -65 62 0 5 7 8 15 8 8 0 15 4 15 9
0 5 -25 9 -55 8 -65 -1 -78 8 -46 34 13 11 22 22 19 25 -8 7 -68 -29 -68 -42
0 -6 13 -35 30 -65 41 -75 37 -96 -5 -29 -19 30 -44 87 -56 125 -11 39 -31
102 -44 140 -29 84 -42 164 -51 308 -6 104 -5 109 15 114 26 7 27 21 3 31 -17
7 -17 14 -5 122 10 83 11 147 4 231 -5 64 -7 129 -6 145 2 16 6 62 10 103 3
40 9 80 13 90 14 34 15 -24 2 -106z m-250 -633 c6 -11 8 -26 4 -32 -5 -8 -10
-5 -15 8 -16 41 -8 59 11 24z m51 -175 c18 -55 59 -151 91 -214 32 -63 58
-115 58 -115 0 -1 -26 0 -57 1 l-58 1 -10 40 c-5 23 -13 44 -17 48 -5 4 -8 18
-8 32 0 13 -7 52 -16 86 -21 80 -42 208 -36 225 7 21 17 1 53 -104z m-869
-622 c2 -115 2 -210 1 -212 -2 -2 -6 -1 -10 3 -10 10 -12 416 -2 416 4 0 10
-93 11 -207z m843 56 c-42 -80 -24 -229 35 -287 l29 -29 -52 -7 c-120 -14
-247 8 -271 47 -16 25 46 138 104 188 25 21 56 49 70 61 29 27 93 68 98 63 2
-2 -4 -18 -13 -36z m95 2 c0 -20 -38 -54 -53 -48 -22 8 -22 35 -1 58 13 14 21
16 35 8 11 -5 19 -14 19 -18z m313 -5 c17 -13 24 -36 10 -36 -5 0 -16 12 -26
25 -19 27 -12 32 16 11z m-685 -113 c-4 -22 -22 -20 -26 1 -2 10 3 16 13 16
10 0 15 -7 13 -17z m-544 -215 c4 -17 2 -28 -4 -28 -5 0 -10 6 -10 13 0 6 -3
23 -6 37 -5 17 -3 22 3 15 6 -5 13 -22 17 -37z m36 -133 c41 -126 136 -284
217 -362 18 -18 33 -40 33 -50 0 -14 -5 -12 -25 12 -95 113 -138 178 -195 295
-31 63 -69 165 -70 185 0 24 19 -16 40 -80z m-55 -302 c-49 -100 -85 -204 -85
-246 0 -24 7 -88 15 -143 8 -54 15 -125 15 -158 0 -48 3 -57 15 -52 19 7 19
-13 2 -39 -8 -11 -19 -52 -26 -91 -7 -38 -27 -115 -45 -169 -29 -86 -34 -95
-39 -70 -6 30 -25 148 -32 195 -7 54 16 271 41 370 14 58 30 131 36 164 10 57
80 249 100 274 23 28 24 9 3 -35z m3630 -65 c-2 -13 -12 -70 -20 -128 -9 -58
-25 -154 -35 -215 -10 -60 -24 -147 -31 -192 -7 -45 -16 -80 -20 -77 -4 2 -6
19 -4 37 10 82 17 129 35 222 10 55 26 150 35 210 22 150 25 165 36 165 5 0 7
-10 4 -22z m-3590 -210 c-8 -63 -55 -301 -61 -307 -12 -13 -9 17 17 144 16 77
29 157 29 178 0 20 5 37 10 37 7 0 8 -19 5 -52z m490 -64 c43 -167 123 -433
135 -449 4 -5 24 -50 45 -100 79 -190 102 -242 135 -305 19 -36 54 -108 80
-160 59 -123 136 -259 215 -380 68 -105 123 -206 106 -195 -6 3 -21 25 -33 48
-11 23 -49 85 -83 137 -183 282 -455 841 -523 1075 -45 153 -101 362 -108 400
-12 71 5 32 31 -71z m1555 -49 c-24 -23 -407 -76 -446 -61 -12 4 -15 2 -11 -9
4 -8 2 -17 -3 -20 -6 -4 -10 4 -10 17 0 32 22 43 120 62 108 20 132 22 260 24
91 2 102 0 90 -13z m83 -16 c47 -24 77 -48 77 -61 0 -16 -44 -26 -61 -14 -51
36 -80 68 -75 81 7 19 9 19 59 -6z m-44 -61 c51 -47 142 -126 208 -181 56 -46
178 -185 178 -202 0 -8 -99 -114 -220 -237 -121 -123 -251 -258 -288 -301 -38
-42 -74 -77 -80 -77 -13 0 -25 10 -143 116 -43 39 -104 93 -133 119 -30 26
-89 82 -131 124 -41 42 -91 90 -111 107 -19 17 -50 51 -67 76 l-31 45 71 89
c38 49 76 96 82 104 7 8 57 59 112 112 l99 97 135 11 c74 6 160 17 190 24 80
20 79 20 129 -26z m-1965 -225 c-8 -45 -26 -113 -40 -150 -65 -174 -92 -272
-99 -367 -4 -53 -11 -96 -15 -96 -4 0 -16 17 -25 37 -15 32 -16 42 -5 68 7 16
22 57 33 90 11 33 35 101 53 150 59 162 94 277 94 310 0 28 8 50 16 42 1 -1
-4 -39 -12 -84z m163 -35 c-2 -24 -4 -7 -4 37 0 44 2 63 4 43 2 -21 2 -57 0
-80z m3159 88 c24 -38 24 -123 -2 -266 -17 -98 -35 -362 -31 -460 5 -127 -2
-166 -72 -379 -91 -279 -128 -419 -160 -611 -43 -253 -61 -426 -62 -575 -1
-100 -5 -153 -13 -157 -8 -6 -8 -10 2 -16 7 -5 16 -49 22 -108 13 -134 62
-373 111 -543 21 -71 23 -88 11 -93 -13 -5 -83 -104 -137 -193 -27 -44 -63
-104 -81 -133 -18 -29 -51 -96 -75 -150 -23 -53 -60 -134 -81 -179 -21 -46
-38 -88 -38 -95 0 -7 -9 -31 -19 -53 l-18 -40 -21 70 c-11 39 -31 109 -44 157
-12 49 -27 88 -31 88 -13 0 16 -130 64 -288 22 -71 22 -74 5 -109 -19 -39 -33
-82 -60 -173 -74 -255 -101 -384 -112 -535 -6 -86 -4 -104 17 -167 26 -78 37
-76 20 2 -15 72 -14 227 3 302 8 35 17 81 20 103 5 43 83 326 115 415 l20 55
11 -30 c30 -75 110 -333 120 -383 6 -32 18 -93 26 -137 17 -92 20 -454 4 -533
-6 -26 -13 -63 -16 -82 -8 -53 -46 -160 -57 -160 -5 0 -70 62 -145 138 -101
101 -158 168 -217 256 -44 65 -104 154 -132 197 -29 43 -53 80 -53 83 0 2 -18
35 -39 73 -37 64 -77 156 -117 266 -9 26 -20 44 -24 40 -4 -4 -15 -37 -24 -73
-25 -91 -103 -247 -150 -298 l-39 -42 18 -66 c19 -71 57 -126 154 -228 150
-156 450 -349 641 -412 47 -15 86 -29 88 -30 5 -3 -56 -120 -95 -182 -78 -121
-127 -180 -220 -263 l-96 -87 -42 62 c-22 34 -67 113 -99 176 -32 63 -62 120
-66 125 -4 6 -10 19 -13 30 -3 11 -42 126 -87 255 -45 129 -92 273 -105 320
-24 84 -85 272 -91 278 -1 2 -26 -14 -56 -36 -45 -34 -143 -92 -154 -92 -2 0
-4 4 -4 8 0 4 21 18 47 31 48 23 163 107 163 119 0 4 -9 54 -20 112 -37 199
-45 908 -10 992 6 16 7 4 2 -37 -9 -77 -9 -726 0 -826 7 -84 37 -219 48 -219
12 0 37 34 64 88 42 82 116 269 116 290 0 10 9 27 19 36 29 27 58 102 80 212
11 55 25 113 29 129 20 66 33 135 43 240 18 189 29 388 23 430 -2 22 -6 81 -9
130 -4 112 -28 259 -54 345 -10 36 -27 99 -36 140 -17 75 -35 141 -79 280 -71
222 -138 520 -117 520 4 0 27 -14 51 -32 24 -18 142 -81 262 -140 189 -94 227
-116 277 -166 32 -31 70 -74 86 -95 28 -38 62 -63 72 -53 7 7 -69 98 -139 168
-50 48 -89 72 -285 169 -126 62 -252 131 -280 152 -46 34 -53 45 -55 76 -4 73
4 123 28 188 71 188 83 271 80 538 -2 225 -3 231 -29 288 -24 52 -25 58 -9 63
47 14 182 85 347 182 33 20 92 53 130 74 138 77 189 114 524 380 199 159 319
211 357 154z m-3086 -211 c19 -36 56 -92 81 -123 60 -75 126 -185 184 -308 26
-54 53 -110 61 -124 53 -93 88 -173 109 -251 14 -55 19 -87 12 -81 -13 11
-114 159 -189 277 -66 102 -144 273 -190 410 -21 66 -57 151 -79 188 -37 65
-48 94 -31 83 4 -2 23 -34 42 -71z m-58 8 c5 -6 11 -45 14 -85 5 -91 -9 -71
-25 35 -11 78 -13 120 -4 82 3 -11 10 -25 15 -32z m-582 -63 c7 -36 28 -96 45
-134 l33 -69 -34 -105 c-38 -117 -94 -262 -102 -262 -2 0 -2 98 2 218 7 223
25 437 37 424 3 -4 12 -36 19 -72z m625 -177 c31 -125 46 -172 58 -177 7 -3 3
-5 -7 -3 -11 1 -20 9 -22 17 -1 8 -16 66 -32 128 -17 62 -27 110 -22 107 4 -3
15 -35 25 -72z m3169 -583 c9 -63 22 -146 28 -185 5 -38 20 -108 33 -155 32
-119 43 -172 55 -270 17 -131 21 -154 26 -169 11 -32 34 -397 34 -541 0 -85 5
-198 10 -250 9 -91 8 -96 -13 -116 -12 -12 -62 -65 -112 -120 -49 -54 -106
-114 -126 -134 -19 -19 -64 -68 -99 -108 -35 -40 -67 -69 -71 -65 -10 12 -46
149 -80 313 -29 141 -52 350 -41 379 9 24 121 131 169 161 29 19 86 38 162 56
126 30 181 49 181 64 0 13 13 16 -161 -31 -175 -47 -212 -65 -289 -143 -30
-31 -58 -56 -61 -56 -14 0 -6 257 11 370 10 63 21 144 25 180 16 163 102 516
211 863 20 63 34 74 34 27 0 -17 7 -47 15 -67 8 -19 15 -42 15 -50 0 -7 7 -30
15 -50 28 -65 35 -24 14 82 -14 74 -21 162 -25 338 -3 131 -2 246 2 255 5 10
11 -91 15 -223 3 -141 13 -287 23 -355z m-3094 480 c24 -48 41 -90 36 -90 -2
0 -14 21 -27 48 -12 26 -26 55 -31 65 -5 9 -6 17 -4 17 3 0 15 -18 26 -40z
m893 -16 c35 -55 90 -177 203 -444 31 -74 64 -153 74 -175 15 -35 64 -179 106
-312 7 -24 9 -43 5 -43 -5 0 -25 53 -46 118 -47 149 -68 209 -109 302 -18 41
-48 111 -66 155 -74 181 -153 351 -181 391 -26 38 -36 64 -25 64 3 0 20 -25
39 -56z m-979 -80 c17 -6 57 -125 76 -226 6 -32 16 -58 21 -58 5 0 9 -12 9
-26 0 -14 -4 -23 -9 -20 -5 4 -17 -16 -25 -42 -26 -77 -122 -220 -246 -364
-115 -134 -344 -368 -360 -368 -20 0 -68 228 -115 545 -2 17 -7 68 -10 115 -3
47 -7 114 -10 150 l-4 65 64 55 c35 30 70 56 77 59 7 2 20 9 28 16 14 11 43
22 164 59 46 15 160 32 256 39 25 2 50 4 57 5 6 1 18 -1 27 -4z m-419 -34 c-5
-8 -45 -21 -45 -14 0 2 5 13 12 24 9 14 16 16 25 8 7 -5 11 -14 8 -18z m526 7
c4 -5 10 -27 13 -48 3 -22 11 -39 17 -39 7 0 8 -7 4 -17 -4 -10 -13 -43 -20
-73 l-12 -55 -12 45 c-19 75 -48 174 -56 194 -7 16 -5 18 26 11 19 -4 37 -12
40 -18z m79 -104 c0 -2 -9 6 -20 17 -11 11 -20 30 -20 43 1 17 5 14 20 -17 11
-22 20 -41 20 -43z m20 -33 c0 -5 14 -32 30 -60 30 -51 38 -73 21 -54 -12 11
-71 120 -71 129 0 3 5 3 10 0 6 -3 10 -10 10 -15z m1411 -289 c11 -58 28 -131
37 -161 20 -65 23 -323 5 -341 -8 -8 -13 11 -17 67 -4 44 -11 140 -17 214 -12
150 -38 296 -68 380 -11 30 -17 59 -13 64 10 16 52 -111 73 -223z m-2300 44
c10 -184 52 -444 100 -633 18 -70 18 -92 -1 -92 -5 0 -36 -16 -69 -36 -99 -59
-284 -114 -385 -114 l-39 0 6 108 c9 180 108 533 179 644 19 29 44 70 56 91
30 52 133 180 139 173 4 -3 9 -67 14 -141z m4321 63 c-3 -51 3 -143 22 -310 7
-64 51 -271 79 -377 l31 -114 63 -28 63 -28 -25 -48 c-13 -27 -29 -61 -34 -76
-11 -28 -31 -29 -31 -2 0 8 -14 54 -30 102 -58 166 -111 400 -139 608 -15 109
-25 299 -18 319 13 34 22 13 19 -46z m-3307 -43 c58 -82 144 -189 156 -193 4
-2 10 12 12 30 2 18 3 -61 1 -177 -4 -270 -37 -551 -94 -790 -10 -44 -24 -109
-30 -145 -7 -36 -18 -85 -25 -110 -8 -25 -23 -83 -35 -130 -73 -293 -172 -591
-277 -828 -8 -18 -32 -79 -53 -135 -55 -147 -252 -629 -290 -712 -76 -167
-151 -315 -159 -315 -4 0 -14 33 -21 72 -7 40 -33 134 -58 208 -24 74 -52 169
-62 210 -10 41 -36 140 -59 220 -23 80 -50 186 -61 235 -11 50 -27 115 -36
145 -9 30 -26 98 -39 150 -12 52 -43 158 -69 235 -26 77 -49 158 -53 180 -3
22 -16 72 -28 110 -12 39 -25 90 -29 115 l-6 45 57 32 c83 46 188 136 358 311
81 84 152 149 155 145 4 -5 53 -98 110 -208 112 -219 181 -332 255 -414 73
-79 66 -45 -8 47 -36 44 -84 113 -107 153 -41 69 -65 115 -185 346 l-53 102
56 70 c225 274 348 466 356 555 2 20 9 42 15 50 7 8 10 19 7 25 -4 5 3 33 14
62 33 82 50 169 52 262 1 47 5 84 9 81 12 -7 -1 -236 -16 -269 -22 -52 -25
-65 -12 -65 7 1 25 26 40 58 15 31 42 85 60 118 18 34 39 81 47 105 27 84 42
115 49 99 3 -9 28 -47 56 -85z m217 -40 c36 -55 82 -134 103 -175 21 -41 62
-118 93 -170 76 -132 148 -280 136 -280 -3 0 -22 37 -43 83 -46 101 -140 253
-176 287 -15 14 -43 48 -63 75 -51 72 -84 105 -95 98 -6 -4 -8 5 -4 24 3 16
-2 62 -12 102 -10 40 -15 68 -11 64 4 -4 36 -53 72 -108z m-568 -424 c-22 -87
-64 -155 -237 -383 -148 -196 -146 -193 -150 -187 -9 10 -70 138 -82 170 l-13
37 48 31 c26 17 53 31 58 31 11 0 111 82 207 170 27 25 76 75 108 113 32 37
62 67 66 67 5 0 2 -22 -5 -49z m1116 -233 c81 -207 100 -260 128 -358 35 -118
56 -222 50 -241 -2 -6 -14 37 -27 97 -30 143 -102 353 -196 578 -6 13 -5 17 2
13 6 -4 25 -44 43 -89z m-1604 -170 c4 -13 24 -61 46 -106 l39 -84 -29 -31
c-74 -81 -284 -291 -342 -342 -58 -51 -170 -125 -189 -125 -4 0 -13 26 -19 58
-6 31 -25 122 -42 202 -20 97 -30 174 -30 233 l0 87 59 0 c88 0 292 42 336 69
17 11 139 59 152 60 6 1 15 -9 19 -21z m2024 -216 c17 -83 46 -200 64 -259 19
-59 46 -150 60 -201 15 -51 44 -135 65 -185 50 -120 107 -304 121 -392 6 -38
20 -115 32 -170 41 -195 49 -486 19 -660 -6 -33 -13 -89 -16 -124 -5 -62 -30
-183 -45 -209 -6 -13 -53 97 -123 293 -45 124 -80 250 -108 385 -23 113 -28
295 -11 383 5 26 6 47 2 47 -8 0 -70 -133 -70 -150 0 -17 -50 -120 -84 -173
-19 -29 -67 -118 -109 -199 -41 -81 -84 -160 -95 -175 -11 -15 -25 -46 -30
-68 -10 -37 -48 -247 -55 -305 -1 -14 -10 16 -20 67 l-17 92 40 73 c22 40 40
79 40 86 0 8 8 26 19 40 10 15 60 108 111 207 51 99 101 192 111 206 24 35 79
150 79 167 0 8 16 45 35 83 19 39 35 76 35 83 0 6 5 17 12 24 14 14 52 129 79
242 12 47 24 91 28 98 4 7 -10 65 -31 129 -21 63 -38 123 -38 132 0 9 -9 45
-21 81 -49 156 -62 203 -89 339 -17 79 -30 151 -30 159 0 39 13 -7 40 -146z
m2464 -327 c72 -122 299 -212 547 -216 137 -2 225 15 353 68 46 19 61 22 67
12 18 -30 59 -232 69 -339 6 -63 9 -177 6 -254 -4 -138 -31 -363 -46 -401 -5
-11 -14 -54 -20 -95 -28 -181 -41 -260 -59 -335 -30 -126 -59 -297 -76 -455
-9 -80 -22 -199 -31 -265 -8 -66 -25 -232 -39 -369 -13 -136 -25 -250 -27
-252 -2 -2 -28 29 -58 69 -30 40 -58 74 -62 75 -5 2 -8 8 -8 14 0 5 -11 24
-25 42 -31 41 -76 124 -182 339 -32 65 -70 141 -85 170 -39 75 -93 234 -124
367 -7 30 -24 105 -38 165 -28 120 -52 211 -59 223 -14 22 -100 446 -122 594
-8 58 -24 150 -35 203 -23 113 -22 105 -11 105 8 0 36 -144 82 -415 25 -154
66 -341 114 -520 19 -71 46 -182 60 -245 14 -63 34 -144 45 -178 11 -35 20
-70 20 -78 0 -17 80 -224 93 -242 17 -22 25 0 34 88 21 217 2 578 -47 895 -19
126 -27 165 -56 270 -29 107 -29 125 9 200 55 111 88 255 59 255 -5 0 -14 -30
-21 -67 -6 -38 -28 -103 -48 -146 l-36 -78 -12 38 c-7 21 -18 63 -24 93 -14
62 -26 103 -69 245 -17 55 -43 145 -58 200 -18 68 -41 123 -70 171 -39 64 -52
94 -40 94 2 0 16 -20 30 -45z m936 -68 c0 -60 -302 -124 -450 -95 -67 13 -90
20 -90 30 0 5 8 7 18 4 91 -27 201 -29 312 -5 67 14 143 50 173 81 21 22 37
16 37 -15z m-1540 -570 c0 -412 -6 -467 -86 -807 -12 -53 -14 -53 -43 -8 -49
77 -82 140 -77 146 3 2 -3 17 -13 31 -37 53 -94 187 -147 348 -30 91 -54 173
-54 182 0 9 8 24 18 32 9 9 37 38 61 65 24 27 94 103 157 169 62 66 125 137
141 157 15 21 31 37 36 38 4 0 7 -159 7 -353z m-4100 -947 c-44 -90 -50 -84
-9 9 18 39 34 69 37 66 3 -3 -9 -37 -28 -75z m-66 -159 c-15 -39 -29 -69 -32
-66 -3 2 7 36 23 75 37 91 44 84 9 -9z m296 -405 c-7 -7 -10 4 -9 30 1 39 1
39 10 9 5 -18 5 -33 -1 -39z m1950 -541 c14 -65 96 -323 135 -420 13 -33 39
-100 58 -150 32 -80 84 -193 151 -325 13 -25 44 -80 69 -122 41 -69 44 -79 29
-87 -24 -13 -143 -51 -159 -51 -10 0 -13 29 -13 133 -1 147 -19 286 -44 332
-9 17 -16 37 -16 46 0 8 -4 19 -9 25 -30 33 -231 632 -231 690 0 25 19 -20 30
-71z m3409 -390 c35 -36 59 -65 54 -65 -6 0 -36 29 -68 65 -31 36 -55 65 -53
65 2 0 32 -29 67 -65z m-3177 -90 c6 -22 23 -67 38 -100 15 -33 30 -74 34 -90
9 -33 125 -206 197 -291 27 -32 49 -61 49 -65 0 -12 -59 -51 -67 -46 -11 7
-94 172 -147 292 -72 164 -115 276 -131 345 -18 81 -18 112 1 45 8 -27 20 -68
26 -90z"/>
<path d="M2766 10321 c-4 -7 -5 -15 -2 -18 9 -9 19 4 14 18 -4 11 -6 11 -12 0z"/>
<path d="M4850 9130 c0 -11 43 -92 104 -195 19 -33 51 -88 71 -122 20 -35 41
-63 47 -63 5 0 8 -5 6 -10 -2 -6 -46 -25 -99 -44 -125 -43 -180 -77 -256 -153
-34 -35 -69 -63 -77 -63 -8 0 -18 -5 -22 -12 -5 -8 2 -9 26 -5 25 6 30 4 23
-6 -13 -15 -25 -77 -15 -77 4 1 20 21 36 47 17 27 42 51 62 59 18 8 36 18 39
24 7 12 119 70 134 70 5 0 -1 -19 -14 -42 -33 -62 -46 -130 -43 -236 l3 -94
85 6 c47 3 95 8 106 11 12 4 25 2 29 -5 5 -8 12 -7 24 4 24 22 81 33 81 16 0
-10 5 -9 18 2 24 21 69 31 74 16 3 -7 13 -3 27 11 17 17 30 22 52 17 15 -3 31
-1 34 4 3 6 17 10 30 10 13 0 27 5 31 11 3 6 17 9 30 6 13 -2 29 2 35 9 6 8
29 17 50 20 41 7 46 13 28 31 -14 14 34 48 56 39 8 -3 15 -1 15 4 0 6 -3 10
-7 10 -29 1 -32 18 -13 58 18 36 24 41 44 36 21 -5 24 -2 28 33 3 21 4 39 3
41 -1 1 -24 9 -51 16 -65 18 -148 54 -209 91 -49 29 -53 30 -212 33 l-163 4
-53 82 c-53 80 -108 176 -155 269 -22 43 -42 61 -42 37z m766 -538 c29 -23 33
-31 28 -57 -10 -53 -61 -153 -84 -165 -28 -15 -34 -7 -49 71 -8 37 -26 78 -51
116 -22 32 -40 62 -40 66 0 4 36 5 81 2 68 -5 86 -10 115 -33z m-610 -49 c8
-30 -15 -53 -53 -53 -27 0 -29 10 -8 50 20 38 52 40 61 3z m356 -112 c-2 -30
-8 -63 -13 -73 -14 -27 -2 -36 19 -15 11 11 17 36 18 70 1 28 7 52 13 52 17 0
101 -86 101 -104 0 -14 -30 -24 -162 -54 -245 -55 -311 -67 -378 -67 -60 0
-60 0 -60 29 0 18 13 46 33 72 38 51 57 60 57 27 0 -25 45 -98 60 -98 6 0 10
7 10 15 0 8 -4 15 -10 15 -11 0 -34 43 -44 82 -6 25 -2 30 34 48 34 17 40 18
40 5 0 -36 42 -97 76 -111 30 -13 38 -13 64 1 44 23 60 53 60 113 l0 53 43 -3
42 -3 -3 -54z"/>
<path d="M4865 8758 c-65 -24 -220 -142 -209 -160 4 -5 18 1 33 15 43 40 156
115 184 122 30 8 59 36 36 34 -8 0 -27 -5 -44 -11z"/>
<path d="M6360 8514 c-18 -8 -72 -54 -120 -102 -88 -91 -114 -136 -130 -232
-10 -57 4 -186 24 -225 23 -44 20 -77 -18 -205 -38 -128 -56 -214 -48 -242 7
-26 22 -11 22 22 0 34 18 46 94 65 137 34 211 74 305 163 59 57 88 93 107 136
31 67 46 126 33 126 -5 0 -12 -12 -15 -27 -18 -73 -74 -161 -146 -227 -81 -76
-116 -97 -215 -126 -37 -11 -87 -27 -110 -34 -53 -17 -54 -16 -13 114 43 135
47 181 21 258 -46 136 -25 273 55 362 34 37 40 40 89 40 62 0 118 -34 156 -96
12 -21 25 -32 27 -26 5 16 -55 99 -91 126 -20 14 -43 21 -77 21 l-49 0 32 33
c46 47 100 72 157 72 28 0 50 -3 50 -6 0 -3 -10 -19 -21 -36 -16 -22 -19 -32
-10 -41 8 -8 11 -6 11 9 0 26 35 64 60 64 10 0 33 -14 50 -31 17 -17 34 -28
38 -24 8 8 -53 63 -86 76 -36 14 -143 10 -182 -7z"/>
<path d="M4630 8420 c0 -5 5 -10 10 -10 6 0 10 5 10 10 0 6 -4 10 -10 10 -5 0
-10 -4 -10 -10z"/>
<path d="M6625 8420 c3 -5 8 -10 11 -10 2 0 4 5 4 10 0 6 -5 10 -11 10 -5 0
-7 -4 -4 -10z"/>
<path d="M4057 7633 c-11 -20 -16 -63 -8 -63 13 0 32 58 21 65 -5 3 -11 2 -13
-2z"/>
<path d="M4920 9830 c0 -5 5 -10 11 -10 5 0 7 5 4 10 -3 6 -8 10 -11 10 -2 0
-4 -4 -4 -10z"/>
<path d="M4330 6800 c-36 -9 -11 -17 30 -10 27 4 30 7 15 11 -11 3 -31 3 -45
-1z"/>
<path d="M4090 6720 c-8 -5 -12 -10 -8 -10 4 0 -3 -11 -16 -24 -27 -26 -61
-86 -49 -86 5 0 21 19 36 43 15 23 35 52 44 65 17 24 16 27 -7 12z"/>
<path d="M4495 6720 c3 -5 14 -10 23 -10 15 0 15 2 2 10 -20 13 -33 13 -25 0z"/>
<path d="M4557 6648 c40 -76 55 -167 36 -221 -8 -23 -20 -49 -27 -57 -20 -25
-38 -72 -25 -68 15 5 62 93 77 144 18 62 -10 180 -57 237 -28 34 -31 16 -4
-35z"/>
<path d="M3905 6538 c-8 -32 -2 -188 8 -191 4 -1 9 46 12 106 2 62 0 107 -5
107 -5 0 -12 -10 -15 -22z"/>
<path d="M3994 6534 c-9 -36 1 -147 15 -170 11 -17 11 -15 6 9 -3 16 -6 65 -6
108 0 83 -4 97 -15 53z"/>
<path d="M4690 6528 c0 -14 -3 -33 -6 -42 -4 -11 -1 -16 10 -16 18 0 22 45 6
70 -8 12 -10 9 -10 -12z"/>
<path d="M4685 6430 c-3 -5 1 -10 10 -10 9 0 13 5 10 10 -3 6 -8 10 -10 10 -2
0 -7 -4 -10 -10z"/>
<path d="M4021 6335 c0 -16 52 -88 67 -93 11 -3 12 0 3 14 -17 30 -70 90 -70
79z"/>
<path d="M4645 6310 c-9 -17 -14 -37 -12 -43 2 -7 12 6 21 27 20 48 14 60 -9
16z"/>
<path d="M3920 6311 c0 -17 44 -83 82 -123 90 -94 225 -137 368 -115 87 13
109 19 121 33 6 8 16 14 21 14 16 0 71 50 90 81 25 41 5 45 -23 5 -71 -104
-302 -149 -438 -85 -78 37 -150 98 -174 148 -21 42 -47 66 -47 42z"/>
<path d="M2864 6293 c3 -10 15 -48 26 -84 22 -73 166 -369 180 -369 12 0 20
27 20 64 0 40 -77 200 -154 319 -51 80 -85 112 -72 70z"/>
<path d="M6220 4040 c0 -5 5 -10 10 -10 6 0 10 5 10 10 0 6 -4 10 -10 10 -5 0
-10 -4 -10 -10z"/>
<path d="M6801 1908 c-6 -18 -46 -91 -89 -163 -117 -195 -117 -196 -97 -258 9
-29 41 -104 69 -167 29 -63 56 -124 60 -134 3 -10 8 -17 11 -15 2 3 21 70 41
149 34 132 38 157 38 285 1 183 -5 324 -15 330 -4 3 -12 -9 -18 -27z"/>
<path d="M2280 1783 c0 -21 3 -24 9 -14 5 8 7 20 4 28 -8 21 -13 15 -13 -14z"/>
<path d="M7925 910 c-3 -5 -1 -10 4 -10 6 0 11 5 11 10 0 6 -2 10 -4 10 -3 0
-8 -4 -11 -10z"/>
<path d="M7992 804 c-7 -26 -21 -58 -32 -72 -11 -13 -20 -32 -20 -42 0 -9 -3
-20 -7 -24 -4 -3 -8 -12 -9 -19 -5 -32 -41 -142 -84 -258 -50 -134 -93 -218
-166 -324 l-44 -65 43 0 42 0 67 103 c37 56 94 161 128 232 34 72 68 141 76
155 19 33 69 140 78 165 7 19 -42 194 -54 195 -3 0 -11 -21 -18 -46z"/>
<path d="M8080 677 c0 -10 97 -208 127 -260 38 -64 105 -137 127 -137 12 0 7
9 -18 31 -45 39 -114 145 -172 261 -41 85 -64 122 -64 105z"/>
</g>
</svg>
